name Walk3.mot
datacolumns 19
datarows 12
range 2.29000000 2.34500000
endheader

                time	   L_ground_force_vx	   L_ground_force_vy	   L_ground_force_vz	   L_ground_force_px	   L_ground_force_py	   L_ground_force_pz	   R_ground_force_vx	   R_ground_force_vy	   R_ground_force_vz	   R_ground_force_px	   R_ground_force_py	   R_ground_force_pz	   L_ground_torque_x	   L_ground_torque_y	   L_ground_torque_z	   R_ground_torque_x	   R_ground_torque_y	   R_ground_torque_z	
          2.29000000	        -11.13312059	        476.67093932	         45.46104663	          0.44381546	          0.00000000	          0.18499922	         -0.14858619	        -22.02943674	         -0.11656376	         -0.14397080	          0.00000000	          0.21518808	          0.00000000	         -1.16515756	          0.00000000	          0.00000000	          0.00127237	          0.00000000	
          2.29500000	         -7.99902190	        477.15700965	         47.35255750	          0.44542041	          0.00000000	          0.18440127	         -0.14855352	        -22.02400200	         -0.11631946	         -0.14397139	          0.00000000	          0.21520393	          0.00000000	         -1.23062364	          0.00000000	          0.00000000	          0.00128997	          0.00000000	
          2.30000000	         -5.43443386	        479.36648607	         48.39814390	          0.44715019	          0.00000000	          0.18394414	         -0.14855074	        -22.02202176	         -0.11623293	         -0.14397096	          0.00000000	          0.21520697	          0.00000000	         -1.30706365	          0.00000000	          0.00000000	          0.00129683	          0.00000000	
          2.30500000	         -3.12774839	        483.74238032	         48.78799067	          0.44891066	          0.00000000	          0.18364413	         -0.14884423	        -22.06693451	         -0.11825821	         -0.14396447	          0.00000000	          0.21506881	          0.00000000	         -1.39138014	          0.00000000	          0.00000000	          0.00115238	          0.00000000	
          2.31000000	         -0.72603834	        490.86211300	         48.58421881	          0.45048603	          0.00000000	          0.18356358	         -0.14963650	        -22.20243239	         -0.12434289	         -0.14395143	          0.00000000	          0.21468076	          0.00000000	         -1.45397544	          0.00000000	          0.00000000	          0.00071205	          0.00000000	
          2.31500000	          2.00912362	        500.12844633	         47.89133274	          0.45191691	          0.00000000	          0.18367252	         -0.14895895	        -22.13685963	         -0.12131822	         -0.14397812	          0.00000000	          0.21495506	          0.00000000	         -1.52389034	          0.00000000	          0.00000000	          0.00091102	          0.00000000	
          2.32000000	          4.93052125	        511.25943397	         46.90677685	          0.45335746	          0.00000000	          0.18377186	         -0.13986521	        -20.70324208	         -0.05674589	         -0.14416591	          0.00000000	          0.21926708	          0.00000000	         -1.69013772	          0.00000000	          0.00000000	          0.00553493	          0.00000000	
          2.32500000	          7.64571635	        523.87738222	         45.65159940	          0.45480832	          0.00000000	          0.18389085	         -0.12535963	        -18.05595276	          0.06186944	         -0.14437045	          0.00000000	          0.22699215	          0.00000000	         -1.90588905	          0.00000000	          0.00000000	          0.01417585	          0.00000000	
          2.33000000	          9.90728961	        537.24687325	         44.10453683	          0.45630345	          0.00000000	          0.18410616	         -0.13284667	        -18.99433940	          0.01913367	         -0.14414238	          0.00000000	          0.22381458	          0.00000000	         -2.13661079	          0.00000000	          0.00000000	          0.01120684	          0.00000000	
          2.33500000	         11.63869788	        551.12942600	         42.32757017	          0.45798929	          0.00000000	          0.18417679	         -0.14655920	        -21.53479490	         -0.09466056	         -0.14396419	          0.00000000	          0.21653300	          0.00000000	         -2.32379374	          0.00000000	          0.00000000	          0.00289484	          0.00000000	
          2.34000000	         12.93739154	        565.42163961	         40.43270352	          0.45996259	          0.00000000	          0.18437314	         -0.15015576	        -22.26368693	         -0.12659839	         -0.14394348	          0.00000000	          0.21458448	          0.00000000	         -2.45752042	          0.00000000	          0.00000000	          0.00069849	          0.00000000	
          2.34500000	         14.16008545	        579.42230587	         38.50737248	          0.46202913	          0.00000000	          0.18475297	         -0.15049004	        -22.23167452	         -0.12365413	         -0.14393800	          0.00000000	          0.21484731	          0.00000000	         -2.63497818	          0.00000000	          0.00000000	          0.00136155	          0.00000000	
